<?xml version="1.0" encoding="UTF-8"?>
<svg id="Calque_1" data-name="Calque 1" xmlns="http://www.w3.org/2000/svg" viewBox="0 0 207 242.9">
  <defs>
    <style>
      .cls-1 {
        fill: #e7494f;
      }

      .cls-2 {
        fill: none;
        stroke: #e7494f;
        stroke-miterlimit: 10;
        stroke-width: 1.39px;
      }
    </style>
  </defs>
  <g>
    <path class="cls-1" d="m63.44,165.47l-.85,8.27h-23.77v-.35c.94,0,1.67-.73,1.67-1.64v-23.43l6.58-8.33h-6.78c.91.5,1.52,1.46,1.52,2.6,0,1.64-1.32,2.98-2.98,2.98h-.15c-1.64,0-2.98-1.34-2.98-2.98s1.34-2.98,2.98-2.98h23.03c.64,0,1.2-.5,1.26-1.14h.32l-.82,8.24h-.32c.32-3.39-2.13-6.37-5.44-6.72h-9.62v17.09h4.71c2.34,0,4.3-1.81,4.47-4.12h.32l-.64,8.24h-.35c.18-2.05-1.43-3.8-3.51-3.8h-3.86c-.64,0-1.14.53-1.14,1.14v13.21c0,.91.73,1.64,1.64,1.64h5.61c4.5,0,8.3-3.42,8.74-7.92h.35Z"/>
    <path class="cls-1" d="m91.25,173.74h-26.24v-.36c1.08,0,1.8-.72,1.8-1.8v-29.83c0-1.08-.72-1.8-1.8-1.8v-.36h10.42v.36c-1.08,0-1.8.72-1.8,1.8v31.63h8.98c4.31,0,7.91-3.59,7.19-8.27h.36l1.08,8.63Z"/>
    <path class="cls-1" d="m104.83,141.22v29.27c0,1.63,1.63,1.63,1.63,1.63v1.63h-9.75v-1.63q1.63,0,1.63-1.63v-29.27l-1.63-1.63h9.75l-1.63,1.63Z"/>
    <path class="cls-1" d="m139.26,139.6l-.71,6.85-.12,1.18v.47h-.35c.47-4.37-2.95-8.15-7.33-8.15h-2.48v31.66c0,.94.71,1.77,1.65,1.77v.35h-10.28v-.35c.94,0,1.77-.83,1.77-1.77v-31.66h-2.6c-4.37,0-7.8,3.78-7.32,8.15h-.35l-.83-8.51h28.94Z"/>
    <path class="cls-1" d="m170.86,165.47l-.85,8.27h-23.76v-.35c.93,0,1.67-.73,1.67-1.64v-23.43l6.58-8.33h-6.78c.91.5,1.52,1.46,1.52,2.6,0,1.64-1.32,2.98-2.98,2.98h-.15c-1.64,0-2.98-1.34-2.98-2.98s1.34-2.98,2.98-2.98h23.04c.64,0,1.2-.5,1.26-1.14h.32l-.82,8.24h-.32c.32-3.39-2.13-6.37-5.44-6.72h-9.62v17.09h4.71c2.34,0,4.3-1.81,4.47-4.12h.32l-.64,8.24h-.35c.18-2.05-1.43-3.8-3.51-3.8h-3.86c-.64,0-1.14.53-1.14,1.14v13.21c0,.91.73,1.64,1.64,1.64h5.61c4.5,0,8.3-3.42,8.74-7.92h.35Z"/>
    <path class="cls-1" d="m55.08,181.03l-.49,4.72-.08.81v.33h-.24c.33-3.01-2.03-5.61-5.04-5.61h-1.71v21.81c0,.65.49,1.22,1.14,1.22v.24h-7.08v-.24c.65,0,1.22-.57,1.22-1.22v-21.81h-1.79c-3.01,0-5.37,2.6-5.05,5.61h-.24l-.57-5.86h19.94Z"/>
    <path class="cls-1" d="m65.26,181.17h4.47l8,21.63c.24.71.94,1.51,1.65,1.51v.24h-7.06v-.24c.38.02.4-.05.71-.23.31-.21.35-.39.24-.71-.56-1.51-1.09-2.88-1.41-3.86l-.24-.7c-2.59-3.06-7.53-5.64-15.76-4.47,7.29-2.12,9.88-1.88,13.87-.47-1.41-4.23-3.06-8.47-4.47-12.7Zm-2.12,23.38h-6.82v-.24c1.18,0,2.08-.84,2.82-1.51.85-.75,1.41-1.41,1.88-2.59h.24c-.47.94-.4,2.52,0,3.15.35.56.94.94,1.88.94v.24Z"/>
    <path class="cls-1" d="m99.31,181.03l-.49,4.72-.08.81v.33h-.24c.33-3.01-2.03-5.61-5.04-5.61h-1.71v21.81c0,.65.49,1.22,1.14,1.22v.24h-7.08v-.24c.65,0,1.22-.57,1.22-1.22v-21.81h-1.79c-3.01,0-5.37,2.6-5.05,5.61h-.24l-.57-5.86h19.94Z"/>
    <path class="cls-1" d="m122.2,181.03l-.49,4.72-.08.81v.33h-.24c.33-3.01-2.03-5.61-5.04-5.61h-1.71v21.81c0,.65.49,1.22,1.14,1.22v.24h-7.08v-.24c.65,0,1.22-.57,1.22-1.22v-21.81h-1.79c-3.01,0-5.37,2.6-5.05,5.61h-.24l-.57-5.86h19.94Z"/>
    <path class="cls-1" d="m146.65,188.97c2.08,6.17-1.23,12.8-7.4,14.96-6.09,2.08-12.8-1.23-14.88-7.4-2.08-6.09,1.23-12.8,7.33-14.88,6.17-2.08,12.8,1.23,14.96,7.33Zm-4.47,1.54c-2.08-6.02-6.71-9.87-10.41-8.64-3.62,1.23-5.01,7.17-2.93,13.18,2,6.01,6.71,9.87,10.33,8.64,3.7-1.31,5.01-7.17,3.01-13.18Z"/>
    <path class="cls-1" d="m171.24,188.97c2.08,6.17-1.23,12.8-7.4,14.96-6.09,2.08-12.8-1.23-14.88-7.4-2.08-6.09,1.24-12.8,7.33-14.88,6.17-2.08,12.8,1.23,14.96,7.33Zm-4.47,1.54c-2.08-6.02-6.71-9.87-10.41-8.64-3.62,1.23-5.01,7.17-2.93,13.18,2,6.01,6.71,9.87,10.33,8.64,3.7-1.31,5.01-7.17,3.01-13.18Z"/>
  </g>
  <g>
    <path class="cls-1" d="m110.13,116.16h-11.57c-1.87,0-3.37-1.51-3.37-3.37v-27.23c0-1.26,1.03-2.35,2.35-2.35h7.95c4.28,0,7.59,3.61,7.23,7.83h.72l1.33-16.99h-.66c-.36,4.76-4.4,8.5-9.22,8.5h-9.7v-34.25c0-1.87,1.51-3.37,3.37-3.37h11.57c9.28,0,17.11,7.05,18.01,16.33h.72l-1.75-17.05h-48.97v.72c1.93,0,3.43,1.51,3.43,3.37v64.49c0,1.87-1.5,3.37-3.43,3.37v.72h48.97l1.75-17.05h-.72c-.9,9.28-8.73,16.33-18.01,16.33Z"/>
    <g>
      <path class="cls-2" d="m75.55,112.13c-8.73-7.73-14.23-19.02-14.23-31.59s5.46-23.77,14.12-31.5"/>
      <path class="cls-2" d="m119.4,119.62c-4.91,2-10.28,3.1-15.9,3.1-5.29,0-10.36-.97-15.02-2.75"/>
      <path class="cls-2" d="m135.43,52.97c6.39,7.39,10.25,17.03,10.25,27.56s-3.67,19.69-9.77,27"/>
      <path class="cls-2" d="m89.06,40.89c4.5-1.64,9.37-2.54,14.44-2.54,5.82,0,11.36,1.18,16.41,3.31"/>
    </g>
  </g>
</svg>