<?xml version="1.0" encoding="utf-8"?>
<!-- Generator: Adobe Illustrator 27.8.0, SVG Export Plug-In . SVG Version: 6.00 Build 0)  -->
<svg version="1.1" xmlns="http://www.w3.org/2000/svg" xmlns:xlink="http://www.w3.org/1999/xlink" x="0px" y="0px"
	 viewBox="0 0 141.7 85" style="enable-background:new 0 0 141.7 85;" xml:space="preserve">
<style type="text/css">
	.st0{fill:#012169;}
	.st1{fill:#FFFFFF;}
	.st2{fill:#C8102E;}
	.st3{fill:#CE1126;}
	.st4{fill:#002654;}
</style>
<g id="svg5" xmlns:rdf="http://www.w3.org/1999/02/22-rdf-syntax-ns#" xmlns:cc="http://creativecommons.org/ns#" xmlns:dc="http://purl.org/dc/elements/1.1/" xmlns:svg="http://www.w3.org/2000/svg">
	<g id="layer1">
		<path id="rect5260" class="st0" d="M0,0h141.7v85H0V0z"/>
		<path id="path15342" class="st1" d="M16.5,0L0,0l0,9.9L125.2,85h16.5v-9.9L16.5,0z"/>
		<path id="path15319" class="st1" d="M141.7,9.9V0l-16.5,0L0,75.1L0,85h16.5L141.7,9.9z"/>
		<path id="rect10396" class="st1" d="M56.7,0H85v85H56.7V0z"/>
		<path id="rect11230" class="st1" d="M0,28.3h141.7v28.3H0V28.3z"/>
		<path id="rect10396-3" class="st2" d="M62.4,0h17v85h-17V0z"/>
		<path id="rect11230-6" class="st2" d="M0,34h141.7v17H0V34z"/>
		<path id="path15792" class="st2" d="M141.7,85v-6.6l-36.2-21.7h-11L141.7,85z"/>
		<path id="path15766" class="st2" d="M0,0l0,6.6l36.2,21.7l11,0L0,0z"/>
		<path id="path15786" class="st2" d="M85,28.3h9.5L141.7,0h-11L85,27.4V28.3z"/>
		<path id="path15788" class="st2" d="M56.7,56.7h-9.4L0,85v0h11l45.7-27.4V56.7z"/>
	</g>
</g>
<g id="Calque_2">
	<g>
		<path class="st3" d="M0,0h141.7v85H0"/>
		<path class="st1" d="M0,0h94.5v85H0"/>
		<g>
			<path class="st4" d="M0,0h47.2v85H0"/>
		</g>
	</g>
</g>
</svg>
