<?xml version="1.0" encoding="utf-8"?>
<!-- Generator: Adobe Illustrator 27.7.0, SVG Export Plug-In . SVG Version: 6.00 Build 0)  -->
<svg version="1.1" id="Calque_1" xmlns="http://www.w3.org/2000/svg" xmlns:xlink="http://www.w3.org/1999/xlink" x="0px" y="0px"
	 viewBox="0 0 430 430" style="enable-background:new 0 0 430 430;" xml:space="preserve">
<style type="text/css">
	.st0{fill:#FFFFFF;}
</style>
<path class="st0" d="M0.1,428.2c4.7-10.1,7.9-20.7,11.7-31.1c8.6-23.2,17-46.4,25.4-69.6c0.9-2.6,2.6-4.6,4.5-6.5
	c86.5-86.4,173-172.8,259.5-259.2c18.2-18.2,36.4-36.4,54.6-54.6c9.7-9.6,20-9.6,29.7,0c12.4,12.4,24.7,24.7,37.1,37.1
	c10,10,10,20.2,0,30.3C320.9,176.2,219.3,277.8,117.7,379.3c-1.7,1.7-3.3,3.4-4.9,5.2c-4.1,4.7-9,8-15,10.1
	c-31,11-61.9,22.4-92.8,33.7c-1.1,0.4-2.5,0.4-3.2,1.6C0.3,430.2-0.2,429.7,0.1,428.2L0.1,428.2L0.1,428.2z M336.8,85.1
	c-0.7-0.8-1.4-1.5-2.1-2.2c-5.6-5.6-11.4-11.2-16.9-17c-2.1-2.2-3.3-2.3-5.6-0.1C227.2,151.1,142,236.3,56.8,321.4
	c-2.1,2.1-2.1,3.1,0,5.2c15.3,15.1,30.6,30.3,45.7,45.7c2.8,2.9,4.2,2.9,7.1,0c84.5-84.7,169.1-169.2,253.7-253.8
	c0.5-0.5,0.9-1.1,1.5-1.5c2-1.5,1.6-2.7-0.1-4.3c-5.6-5.5-11.3-10.9-16.6-16.7c-2.7-2.9-4.1-2.5-6.7,0.1
	c-68.5,68.6-137.1,137.2-205.6,205.7c-0.8,0.8-1.7,1.5-2.4,2.4c-1.8,2.4-3.6,2.9-5.5,0.1c-0.5-0.7-1.1-1.3-1.8-1.8
	c-3.3-2.3-2.5-4.1,0.1-6.7c69.2-69.1,138.4-138.2,207.5-207.4c0.7-0.7,1.4-1.4,2.1-2.1C336.1,86.1,336.4,85.7,336.8,85.1L336.8,85.1
	L336.8,85.1z M419,59.2c0-2.2-1-4-2.5-5.6c-13.3-13.4-26.6-26.8-40.1-40c-3.9-3.9-7.9-3.8-11.8,0.1c-7.4,7.2-14.6,14.7-22,21.9
	c-1.6,1.6-1.9,2.5-0.1,4.3c15.9,15.8,31.7,31.6,47.5,47.5c1.6,1.6,2.6,1.9,4.3,0.1c7.3-7.5,14.8-14.9,22.2-22.3
	C418.1,63.6,419.1,61.6,419,59.2C419,59.2,419,59.2,419,59.2z M96.7,382.3c-0.5-0.5-0.9-1-1.4-1.5c-15.3-15.3-30.7-30.6-45.9-46
	c-2.4-2.5-3-1-3.7,1.1c-4.2,11.8-8.5,23.6-12.8,35.4c-1.8,5-5.3,10.3-4.7,14.9c0.7,4.9,7.2,7.7,10.5,12c3.1,3.9,6.2,4.2,10.8,2.4
	c14.6-5.7,29.3-10.8,44-16.1C94.6,384.1,96.4,384.2,96.7,382.3L96.7,382.3L96.7,382.3z M332.9,46.3c-1.2,0-1.7,0.8-2.2,1.4
	c-1.7,1.7-3.2,3.5-5.1,5c-2.5,2-2.3,3.3,0,5.5c14,13.8,27.9,27.8,41.8,41.7c7.6,7.6,7.5,7.5,14.9-0.4c1.5-1.6,1.6-2.5,0-4
	c-16-15.8-31.8-31.8-47.8-47.7C334,47.2,333.4,46.7,332.9,46.3L332.9,46.3L332.9,46.3z M18.5,411.5c2.2-0.8,3.7-1.2,5.1-1.8
	c6.2-2.2,6.8-5.5,1.7-9.9c-1.3-1.1-2.1-1.8-2.8,0.5C21.4,403.9,20,407.4,18.5,411.5L18.5,411.5L18.5,411.5z"/>
</svg>
