<?xml version="1.0" encoding="utf-8"?>
<!-- Generator: Adobe Illustrator 27.7.0, SVG Export Plug-In . SVG Version: 6.00 Build 0)  -->
<svg version="1.1" id="Calque_1" xmlns="http://www.w3.org/2000/svg" xmlns:xlink="http://www.w3.org/1999/xlink" x="0px" y="0px"
	 viewBox="0 0 449.8 449.9" style="enable-background:new 0 0 449.8 449.9;" xml:space="preserve">
<style type="text/css">
	.st0{fill:#FFFFFF;}
</style>
<path class="st0" d="M144.5,401.6c-4.2,0-7.4-2.9-7.9-7.5c-2.1-18.1-4.1-36.2-6.1-54.3c-1.7-15-3.1-30-5.2-44.9
	C122,270.8,102.9,252,77.6,247c-23.1-4.6-46.2-9.2-69.3-13.9c-5.7-1.1-8.5-4-8.2-8.4c0.3-5,3.5-7.1,8.1-8
	c22.8-4.5,45.5-9.2,68.3-13.7c29.4-5.9,46.9-25.5,50-55.4c3.1-30.4,6.7-60.8,10.1-91.2c0.6-5,3.6-8.1,7.9-8.2c4.5-0.1,7.7,3,8.3,8.3
	c3.6,31.9,6.9,63.8,10.9,95.7c3.3,26.6,21.6,45.4,47.8,50.6c23.3,4.6,46.5,9.4,69.8,13.9c4.7,0.9,7.9,3.1,8,8.1c0,5-3.2,7.3-7.8,8.2
	c-22.8,4.5-45.5,9.1-68.3,13.7c-30,6.1-47.4,25.9-50.3,56.2c-2.9,30.3-6.6,60.5-10,90.7C152.1,398.7,148.9,401.7,144.5,401.6
	L144.5,401.6L144.5,401.6z M52.5,224.3c0,0.4,0,0.9,0,1.3c8.8,1.8,17.6,3.7,26.4,5.3c35.4,6.7,58.1,30.5,62.9,66.1
	c0.8,6.1,1.5,12.2,2.2,18.3c1.6-4.4,2.2-8.6,2.5-12.9c1.3-16.7,6.4-32,17.2-45.1c13.3-16.1,30.8-24,50.9-27.3c7.6-1.2,15-3,22.5-4.5
	c-4.2-1.9-8.2-2.7-12.3-3.6c-12.2-2.7-24.8-3.9-36.2-9.7c-26.5-13.5-39.8-35.6-42.2-64.8c-0.4-4.3-1-8.6-1.5-12.9
	c-1.6,4.4-2.1,8.7-2.5,12.9c-3.2,38.6-26.3,64.2-64.2,71.6C69.7,220.7,61.1,222.5,52.5,224.3L52.5,224.3L52.5,224.3z"/>
<path class="st0" d="M449.8,119.6c0.1,4.8-2.5,7.8-7.7,8.9c-14.5,3.1-29.1,6.1-43.7,9c-16.9,3.3-28.1,15.3-30,32.5
	c-2.3,20.6-4.5,41.2-6.8,61.8c-0.6,5.9-3.5,9-8,9.1c-4.6,0.1-7.6-3.2-8.2-8.9c-2.3-20.6-4.5-41.2-6.8-61.8
	c-1.9-17.4-12.7-29.1-29.8-32.6c-14.6-3-29.1-6.1-43.7-9c-4.7-0.9-7.9-3.2-7.9-8.2c0-5,3.3-7.2,7.9-8.2c14.6-2.9,29.1-6,43.7-9
	c17-3.5,27.9-15.3,29.8-32.7c2.3-20.4,4.5-40.9,6.8-61.3c0.7-6.2,3.6-9.4,8.3-9.3c4.6,0.1,7.3,3.2,8,9.1c2.3,20.6,4.5,41.2,6.8,61.8
	c1.9,17.1,13.2,29.1,30,32.4c14.6,2.8,29.1,6,43.7,9C446.6,113.2,449.3,115.6,449.8,119.6L449.8,119.6L449.8,119.6z M307.8,120.5
	c23,4.1,38.1,16.9,45.7,40c7.4-23.5,23-35.9,45.9-40.1c-23.3-4-38.5-16.8-46-39.9C345.9,103.7,330.7,116.3,307.8,120.5L307.8,120.5
	L307.8,120.5z"/>
<path class="st0" d="M401.7,353.3c-0.3,4.6-2.8,7.4-7.3,8.2c-11.8,2.4-23.6,4.8-35.4,7c-14.1,2.6-22.2,10.5-24.1,24.9
	c-2.1,15.7-3.6,31.5-5.4,47.3c-0.7,5.9-3.5,9-8,9.1c-4.6,0.1-7.6-3.1-8.2-8.9c-1.9-16.1-3.5-32.2-5.6-48.3
	c-1.8-13.5-9.7-21.3-23.2-24c-11.8-2.4-23.6-4.8-35.4-7c-4.7-0.9-7.9-3.2-7.9-8.2c0-5,3.2-7.2,7.9-8.1c11.3-2.1,22.6-4.5,33.9-6.8
	c16-3.2,23.5-11.3,25.2-27.3c1.6-15.1,3.4-30.2,5.1-45.3c0.6-5.8,3.6-8.9,8.3-8.8c4.5,0.1,7.3,3.1,8,8.6c1.9,16.1,3.5,32.2,5.6,48.3
	c1.8,13.7,10,21.8,23.5,24.3c11.8,2.2,23.6,4.7,35.4,7C398.4,346.2,401.1,348.6,401.7,353.3L401.7,353.3L401.7,353.3z M292.6,353.5
	c13.4,4.6,22.8,13.2,28.5,26c7.3-12.1,8.7-16.8,29.4-26.4c-13.8-4.3-23.3-12.9-29.3-26.3C315.3,340.5,305.8,348.8,292.6,353.5
	L292.6,353.5L292.6,353.5z"/>
</svg>
