<?xml version="1.0" encoding="utf-8"?>
<!-- Generator: Adobe Illustrator 27.7.0, SVG Export Plug-In . SVG Version: 6.00 Build 0)  -->
<svg version="1.1" id="Calque_1" xmlns="http://www.w3.org/2000/svg" xmlns:xlink="http://www.w3.org/1999/xlink" x="0px" y="0px"
	 viewBox="0 0 64 64" style="enable-background:new 0 0 64 64;" xml:space="preserve">
<style type="text/css">
	.st0{fill:#231F20;}
	.st1{fill:#E7494F;}
</style>
<g id="Layer_1">
</g>
<g id="Layer_1_00000026859433257123627750000015440520042313670574_">
</g>
<g id="Layer_1_00000039830878372750492020000004747780709887999163_">
</g>
<g id="Layer_1_00000047053218770310234260000006929441533912596409_">
</g>
<g id="star-on-hand">
	<g>
		<path class="st0" d="M35.8,7.2v16.3h-1.5V7.2c0-1.2-1-2.2-2.2-2.2s-2.2,1-2.2,2.2v16.3h-1.5V7.2c0-2,1.6-3.7,3.7-3.7
			c1.9,0,3.5,1.4,3.6,3.3C35.8,6.9,35.8,7,35.8,7.2z"/>
		<path class="st0" d="M41.7,9.7v13.6h-1.5V9.7c0-1.2-1-2.2-2.2-2.2s-2.2,1-2.2,2.2v13.6h-1.5V9.7c0-1.2,0.6-2.2,1.4-2.9
			C36.4,6.3,37.2,6,38,6C40.1,6,41.7,7.7,41.7,9.7z"/>
		<path class="st0" d="M32.9,40.9h-1.5c0-3.4-0.9-6-2.6-7.7C26.5,31,23.4,31,23.3,31l-0.7,0l0-5.8v-0.1c0-0.1,0-0.2,0-0.3l0-0.1
			V11.7c0-2,1.6-3.7,3.7-3.7c0.8,0,1.6,0.3,2.2,0.7c0.8,0.6,1.4,1.6,1.5,2.7c0,0.1,0,0.2,0,0.2v11.8h-1.5V11.7c0-0.1,0-0.1,0-0.2
			c-0.1-1.1-1-2-2.2-2c-1.2,0-2.2,1-2.2,2.2L24,25c0,0.1,0,0.1,0,0.2v4.5c1.2,0.1,3.7,0.6,5.8,2.6C31.8,34.2,32.9,37.1,32.9,40.9z"
			/>
		<path class="st0" d="M47.4,16.5v16.2c0,4.7-2.1,9-5.7,11.9v15.1c0,0.4-0.3,0.7-0.7,0.7H23.3c-0.4,0-0.7-0.3-0.7-0.7V44.9
			c-3.8-2.9-6-7.4-6-12.2l0-11.7c0-0.2,0.1-0.4,0.2-0.5l0.2-0.2c0.1-0.1,0.3-0.2,0.5-0.2H19c1.4,0,2.7,0.6,3.6,1.5
			c0.9,0.9,1.4,2.2,1.4,3.5h-1.5c0-2-1.6-3.6-3.6-3.6h-0.9l0,11.1c0,4.4,2.1,8.6,5.7,11.2c0.2,0.1,0.3,0.4,0.3,0.6V59h16.2V44.3
			c0-0.2,0.1-0.4,0.3-0.6c3.4-2.7,5.4-6.7,5.4-11V16.5c0-1.1-0.8-2.1-1.9-2.3c-1-0.2-2,0.4-2.4,1.3c0,0.1-0.1,0.2-0.1,0.3l-1.4-0.4
			l0,0c0,0,0-0.1,0-0.1c0.3-0.8,0.8-1.4,1.5-1.9c0.7-0.5,1.7-0.7,2.6-0.6C46.1,13,47.4,14.7,47.4,16.5z"/>
		<path class="st0" d="M37.6,50.5c-0.1-0.3-0.3-0.5-0.6-0.5l-2.9-0.4L32.8,47c-0.1-0.2-0.4-0.4-0.6-0.4c-0.3,0-0.5,0.2-0.6,0.4
			l-1.3,2.6L27.3,50c-0.3,0-0.5,0.2-0.6,0.5c-0.1,0.3,0,0.5,0.2,0.7l2.1,2l-0.5,2.9c0,0.3,0.1,0.5,0.3,0.7c0.2,0.2,0.5,0.2,0.8,0.1
			l2.6-1.4l2.6,1.4C34.8,57,35,57,35.1,57c0.1,0,0.3,0,0.4-0.1c0.2-0.2,0.3-0.4,0.3-0.7l-0.5-2.9l2.1-2
			C37.6,51.1,37.6,50.8,37.6,50.5z M34,52.5c-0.2,0.2-0.2,0.4-0.2,0.6l0.3,1.8l-1.6-0.9c-0.1-0.1-0.2-0.1-0.3-0.1s-0.2,0-0.3,0.1
			L30.2,55l0.3-1.8c0-0.2,0-0.5-0.2-0.6L29,51.2l1.8-0.3c0.2,0,0.4-0.2,0.5-0.4l0.8-1.6l0.8,1.6c0.1,0.2,0.3,0.4,0.5,0.4l1.8,0.3
			L34,52.5z"/>
		<path class="st1" d="M44.1,14.2c-1-0.2-2,0.4-2.4,1.3v7.8h-1.5v-8l0,0c0,0,0-0.1,0-0.1V9.7c0-1.2-1-2.2-2.2-2.2s-2.2,1-2.2,2.2
			v13.8h-1.5V7.2c0-1.2-1-2.2-2.2-2.2s-2.2,1-2.2,2.2v4.3c0,0.1,0,0.2,0,0.2v11.8h-1.5v0h0v-12c-0.1-1.1-1-2-2.2-2
			c-1.2,0-2.2,1-2.2,2.2L24,25c0,0.1,0,0.1,0,0.2v4.5c1.2,0.1,3.7,0.6,5.8,2.6c2,2,3.1,4.9,3.1,8.7h-1.5c0-3.4-0.9-6-2.6-7.7
			C26.5,31,23.4,31,23.3,31l-0.7,0l0-5.8c0-2-1.6-3.6-3.6-3.6h-0.9l0,11.1c0,4.4,2.1,8.6,5.7,11.2c0.2,0.1,0.3,0.4,0.3,0.6V59h16.2
			V44.3c0-0.2,0.1-0.4,0.3-0.6c3.4-2.7,5.4-6.7,5.4-11V16.5C46,15.4,45.2,14.4,44.1,14.2z M37.4,51.3l-2.1,2l0.5,2.9
			c0,0.3-0.1,0.5-0.3,0.7C35.4,57,35.2,57,35.1,57c-0.1,0-0.2,0-0.3-0.1l-2.6-1.4l-2.6,1.4c-0.2,0.1-0.5,0.1-0.8-0.1
			c-0.2-0.2-0.3-0.4-0.3-0.7l0.5-2.9l-2.1-2c-0.2-0.2-0.3-0.5-0.2-0.7c0.1-0.3,0.3-0.5,0.6-0.5l2.9-0.4l1.3-2.6
			c0.1-0.2,0.4-0.4,0.6-0.4c0.3,0,0.5,0.2,0.6,0.4l1.3,2.6L37,50c0.3,0,0.5,0.2,0.6,0.5C37.6,50.8,37.6,51.1,37.4,51.3z"/>
	</g>
</g>
</svg>
