<?xml version="1.0" encoding="utf-8"?>
<!-- Generator: Adobe Illustrator 27.7.0, SVG Export Plug-In . SVG Version: 6.00 Build 0)  -->
<svg version="1.1" id="Calque_1" xmlns="http://www.w3.org/2000/svg" xmlns:xlink="http://www.w3.org/1999/xlink" x="0px" y="0px"
	 viewBox="0 0 440.1 436.6" style="enable-background:new 0 0 440.1 436.6;" xml:space="preserve">
<style type="text/css">
	.st0{fill:#FFFFFF;}
</style>
<path class="st0" d="M440.1,164.3c-2.2,2.5-5,3.9-8.2,4.9c-19.8,6.2-39.5,12.6-59.3,18.9c-16.2,5.2-28.6-1.3-33.8-17.6
	c-3.6-11.2-7.2-22.3-10.6-33.5c-0.8-2.7-1.9-3.2-4.6-2.4c-10.6,3.3-10.9,3.3-7.2,13.9c3.5,10,3.1,19.1-4.1,27.3
	c-3.9,4.5-9.3,6.5-14.8,8.2c-6.5,2-8.9,6.2-7.2,12.7c2,7.7,4.1,15.5,6.1,23.2c1.3,4.9-0.6,8.6-4.6,9.5c-3.7,0.8-6.9-1.5-8.2-6.3
	c-7.8-29.3-15.6-58.6-23.4-87.9c-3.3-12.4-13.6-18.9-24.8-15.8c-9.8,2.8-16,12.1-14,22.1c5.7,28.9,11.7,57.8,17.6,86.6
	c1.1,5.4,0,7.3-5,9.9c-20.2,10.4-34,25.9-37.7,49c-1.7,10.8-0.5,21.4,2.6,31.9c0.4,1.4,0.9,2.7,1.2,4.1c0.7,3.9-1.1,7.1-4.6,8
	c-3.6,1-6.9-0.7-8.1-4.5c-3.5-11.1-5.6-22.5-4.9-34.2c1.8-27.9,16-48.1,39.1-62.5c2.9-1.8,3.6-3.4,2.9-6.8
	c-5.8-27.4-11.3-54.9-16.9-82.4c-1.1,0.2-1.2,1.2-1.6,1.9c-9.7,16-29,21.7-45.1,13.3c-16.3-8.5-22.9-27.7-15-44.9
	c9.2-20.2,18.7-40.2,28.1-60.3c1.1-2.4,2.2-4.9,3.3-7.3c-1.1-1.3-2.3-0.6-3.3-0.5c-8.1,0.8-16.2,1.6-24.4,2.5
	c-7.2,0.8-12.7,4.5-16.1,10.8c-8.4,15.6-16.6,31.3-24.9,47c-1.5,2.8-1.7,5.7-0.8,8.7c1.8,6.2,3.4,12.4,5,18.7
	c1.2,4.7-0.5,8.3-4.4,9.3c-3.9,1-7-1.1-8.4-5.9c-1.7-6.1-3.2-12.2-4.9-18.2c-1.9-6.8-1.2-13.3,2.2-19.5c5.4-10.1,10.7-20.2,16-30.4
	c0.7-1.2,1.3-2.5,1.9-3.8c-11.8-0.8-22,6.9-24.1,18.6c-4,22.4-7.8,44.8-11.6,67.3c-1.5,9.3,3.7,17.1,12.7,19.6
	c5.1,1.4,10.2,2.8,15.6,4.2c0-2.7-0.2-5.3,0-7.8c0.9-9.3,5.8-16,14.3-19.8c3-1.3,6.2-2.3,9.3-3.1c4.3-1.1,7.4,0.5,8.6,4.1
	c1.2,3.5-0.6,6.9-4.6,8.4c-2.4,0.9-4.9,1.5-7.3,2.4c-5.8,2.3-8.6,7.6-6.8,13.5c4.2,13.7,8.5,27.3,13.1,40.9
	c2.3,6.8,7.9,9.1,15.3,6.7c17-5.4,34.1-10.9,51.1-16.3c0.8-0.3,1.6-0.5,2.5-0.7c4-1,7.5,0.8,8.5,4.4c1,3.4-0.7,6.8-4.6,8.1
	c-8.1,2.8-16.3,5.3-24.5,7.9c-9.7,3.1-19.4,6.2-29,9.2c-13,4.1-23,0.5-30.1-11.2c-1.6-2.6-3-1.8-4.9-1.1
	c-22.7,7.3-45.5,14.4-68.2,21.8c-3.9,1.3-7.6,1.7-11.8,0.9c-10-2-20-3.6-30-5.2c-2.9-0.5-5.2-1.8-6.2-4.6c-0.9-2.9,0.1-5.3,2.2-7.4
	c8-8,16-16,24-24.1c1.5-1.5,3.2-2.2,5.2-2.9c15.8-5,31.6-10.1,47.4-15.2c1.1-0.4,2.2-0.7,3.6-1.2c-1.7-1-3-1.7-4.3-2.5
	c-10.7-6.5-16.2-18.9-14.1-31.3c3.8-22.3,7.7-44.6,11.6-66.8c2.5-14.5,12.9-25.5,27.2-28.8c2.4-0.5,4.7-1.2,7.1-1.6
	c6.9-1.2,13.1-3.2,18.4-8.6c7.6-7.8,18.4-7.8,28.5-8.8c7.3-0.7,14.5-1.6,21.8-2.2c2.5-0.2,3.9-1.1,4.7-3.5c0.7-1.9,1.6-3.7,2.5-5.4
	C195.4,7.3,206,0.4,220.4,0.2c24.1-0.3,48.1-0.2,72.2,0c13.1,0.1,23.4,6.1,30.3,17.2c2.7,4.4,5,9,7.3,13.6c2,4,0.9,7.8-2.6,9.5
	c-3.3,1.7-6.8,0.5-9-3.3c-2.1-3.6-4-7.3-5.9-11c-4.5-8.5-11.6-12.9-21.2-12.9c-23.4-0.1-46.7-0.1-70.1,0c-10.3,0-17.7,4.9-22.1,14.3
	C185.8,57,172,86.4,158.3,115.8c-5.4,11.5-1.2,23.7,9.7,28.7c10.9,5,22.7,0.3,28.1-11.3c12.1-26.2,24-52.5,36.1-78.8
	c0.8-1.7,1.5-3.5,2.6-4.9c2.1-2.8,5.1-3.2,8.1-1.7c2.8,1.4,4.1,4,3.3,7.2c-0.4,1.5-1.1,2.9-1.7,4.4c-7.9,17.3-15.8,34.6-23.6,51.8
	c1.2,1.3,2,0.2,2.8-0.1c17.2-6.5,34.8-11.2,52.5-15.9c11.8-3.1,23.9,3.7,28.1,15.5c1.5,4,2.8,8.1,4,12.2c0.6,2.1,1.6,2.5,3.4,1.8
	c0.3-0.1,0.5-0.2,0.8-0.3c7.1-2.1,9.6-6.7,7.3-13.8c-3-9.4-6-18.8-9-28.2c-4.5-14.3,2-27.1,16.2-31.6c32.7-10.5,65.4-20.8,98.1-31.2
	c5.2-1.6,8.2-0.7,10,2.9c1.9,3.9-0.2,7.8-5.2,9.4c-17.2,5.5-34.3,10.9-51.5,16.4c-15.5,4.9-31.1,9.8-46.6,14.8
	c-7.9,2.5-10.8,7.9-8.2,16c9.4,29.6,18.8,59.1,28.3,88.7c2.5,7.8,7.9,10.5,15.8,8c20.5-6.5,40.9-12.9,61.3-19.6
	c4.8-1.6,8.3-0.9,11.2,3.1L440.1,164.3L440.1,164.3L440.1,164.3z M22.3,223.8c7.7,1.3,14,2.4,20.3,3.4c1.1,0.2,2.3,0,3.4-0.4
	c23.3-7.4,46.5-14.9,69.8-22.2c2.4-0.8,2.6-1.9,1.9-4c-1.5-4.2-3-8.4-4.1-12.6c-0.7-2.9-1.9-3.1-4.5-2.2
	c-22.9,7.5-45.9,14.8-68.9,22.1c-1.1,0.4-2.3,0.7-3,1.4C32.5,213.8,27.8,218.5,22.3,223.8L22.3,223.8L22.3,223.8z M262.1,113.4
	c9.9,8.2,11.2,19.6,14.1,30.3c2.5,9.1,5,18.2,7.3,27.3c0.6,2.5,1.4,3.4,4,2.4c3.9-1.5,7.9-2.4,11.8-3.9c5.1-2,7.5-6.1,6-11.3
	c-4.4-14.6-9-29.2-13.9-43.7c-1.7-4.9-7-7.7-11.8-6.5C274,109.4,268.5,111.3,262.1,113.4L262.1,113.4z"/>
<path class="st0" d="M0,246c5-5,7.2-5.2,13.2-0.8c24.5,18.3,42.3,42.1,55.5,69.5c15.9,33,22.5,68,21.3,104.5
	c-0.3,8.4-2.4,11.7-7.1,11.5c-4.8-0.2-6.5-3.6-6.2-12c1.6-49.2-11.5-93.9-41.5-133.3c-8.8-11.6-19-21.8-30.8-30.3
	c-1.6-1.1-2.9-2.6-4.3-4L0,246L0,246z"/>
<path class="st0" d="M110.5,258.5c0.1-9.7,1-17.1,1.9-24.4c0.6-4.3,3.4-6.6,7.3-6.2c3.6,0.4,5.9,3.1,5.7,7.2
	c-0.2,4.3-0.7,8.6-1.2,12.8c-2.3,20.9,3.3,39.4,17.3,55.2c6,6.7,12.5,13,18.9,19.4c4.7,4.7,8.5,10,11.6,15.9
	c9.9,18.9,20,37.7,29.9,56.5c1,1.9,1.9,3.2,4.4,3.1c29.8-1.2,59-4.8,86.9-16.2c18-7.4,34.1-17.4,46.5-32.8c2-2.5,2.2-4.3,0.5-7.1
	c-3.9-6.4-7.4-12.9-11-19.4c-4.1-7.3-5.4-15-3.7-23.2c6.4-31.2,12.8-62.5,19.2-93.7c1-4.8,4.2-7.3,8-6.6c4.1,0.8,6,4.2,4.9,9.3
	c-6.2,30.3-12.3,60.6-18.7,90.8c-1.5,6.8-0.8,12.9,2.9,18.9c4.4,7.4,8.3,15,12.7,22.4c2.1,3.6,2.4,7.1-0.2,10.4
	c-2,2.6-1.5,4.5,0.2,7.1c14.5,21.8,28.9,43.7,43.3,65.6c0.9,1.3,1.9,2.6,2.4,4c1.1,3.1,0.5,6-2.4,7.9c-3.1,2-6,1.5-8.5-1.2
	c-1-1-1.7-2.3-2.5-3.5c-13.5-20.4-26.9-40.9-40.4-61.3c-2-3-4.2-3.3-6.7-1c-20,18.3-44.1,28.3-69.9,34.8
	c-14.5,3.6-29.2,5.7-44.1,6.8c-3.6,0.3-3.3,1.3-1.8,3.7c2.4,3.9,4.7,7.8,7,11.8c2.4,4.2,1.6,8.2-1.9,10.1c-3.4,1.9-6.9,0.8-9.4-3.3
	c-3.7-6.1-7.4-12.3-10.9-18.5c-1.2-2.1-2.6-3.2-5.1-2.8c-6,1-9.3-1.8-12.1-7.1c-10.3-20.1-21.1-40-31.6-60
	c-2.4-4.5-5.3-8.5-8.8-12.1c-6.3-6.3-12.6-12.5-18.6-19.1C117.9,296.9,110.6,277.9,110.5,258.5L110.5,258.5L110.5,258.5z"/>
</svg>
