<?xml version="1.0" encoding="utf-8"?>
<!-- Generator: Adobe Illustrator 27.7.0, SVG Export Plug-In . SVG Version: 6.00 Build 0)  -->
<svg version="1.1" id="Calque_1" xmlns="http://www.w3.org/2000/svg" xmlns:xlink="http://www.w3.org/1999/xlink" x="0px" y="0px"
	 viewBox="0 0 64 64" style="enable-background:new 0 0 64 64;" xml:space="preserve">
<style type="text/css">
	.st0{fill:#231F20;}
	.st1{fill:#E7494F;}
</style>
<g id="Layer_1">
</g>
<g id="Layer_1_00000026859433257123627750000015440520042313670574_">
</g>
<g id="Layer_1_00000039830878372750492020000004747780709887999163_">
</g>
<g id="Layer_1_00000047053218770310234260000006929441533912596409_">
</g>
<g>
	<path class="st0" d="M47.4,2.5v22.9c0,0.4-0.3,0.7-0.7,0.7h-30v-1.3H46V3.2H24.2l0,14.4l0,0.9l-1.3,0l0-0.9l0-15.1
		c0-0.4,0.3-0.7,0.7-0.7h23.1C47.1,1.8,47.4,2.1,47.4,2.5z"/>
	<rect x="19.5" y="17.6" class="st0" width="27.2" height="1.3"/>
	<rect x="19.5" y="20.4" class="st0" width="27.2" height="1.3"/>
	<rect x="18.4" y="26.1" class="st1" width="10.7" height="19"/>
	<path class="st0" d="M30.5,25.4v20.4c0,0.4-0.3,0.7-0.7,0.7h-12c-0.4,0-0.7-0.3-0.7-0.7V25.4h1.3v19.7h10.7V25.4H30.5z"/>
	<rect x="20.2" y="46.4" class="st1" width="4.2" height="7.7"/>
	<path class="st0" d="M25.7,45.8v9c0,0.4-0.3,0.7-0.7,0.7h-5.5c-0.4,0-0.7-0.3-0.7-0.7v-9h1.3v8.4h4.2v-8.4H25.7z"/>
	<rect x="21.6" y="54.8" class="st0" width="1.3" height="7.4"/>
	<path class="st0" d="M32.3,4.6h-3.7c-1.1,0-2,0.9-2,2v8.3c0,1.1,0.9,2,2,2h3.7c1.1,0,2-0.9,2-2V6.6C34.3,5.5,33.4,4.6,32.3,4.6z
		 M33,14.9c0,0.4-0.3,0.7-0.7,0.7h-3.7c-0.4,0-0.7-0.3-0.7-0.7V6.6c0-0.4,0.3-0.7,0.7-0.7h3.7c0.4,0,0.7,0.3,0.7,0.7V14.9z"/>
	<path class="st1" d="M33,6.6v8.3c0,0.4-0.3,0.7-0.7,0.7h-3.7c-0.4,0-0.7-0.3-0.7-0.7V6.6c0-0.4,0.3-0.7,0.7-0.7h3.7
		C32.7,5.9,33,6.2,33,6.6z"/>
	<path class="st0" d="M20,23.9h-2.2c-0.4,0-0.7-0.3-0.7-0.7V16c0-0.4,0.3-0.7,0.7-0.7H20c0.4,0,0.7,0.3,0.7,0.7v7.3
		C20.7,23.6,20.4,23.9,20,23.9z M18.4,22.6h0.9v-5.9h-0.9V22.6z"/>
	<rect x="29.8" y="2.5" class="st0" width="1.3" height="2.8"/>
	<rect x="29.8" y="16.2" class="st0" width="1.3" height="2.6"/>
	<path class="st0" d="M41,4.6h-3.7c-1.1,0-2,0.9-2,2v8.3c0,1.1,0.9,2,2,2H41c1.1,0,2-0.9,2-2V6.6C43,5.5,42.1,4.6,41,4.6z
		 M41.6,14.9c0,0.4-0.3,0.7-0.7,0.7h-3.7c-0.4,0-0.7-0.3-0.7-0.7V6.6c0-0.4,0.3-0.7,0.7-0.7H41c0.4,0,0.7,0.3,0.7,0.7V14.9z"/>
	<path class="st1" d="M41.6,6.6v8.3c0,0.4-0.3,0.7-0.7,0.7h-3.7c-0.4,0-0.7-0.3-0.7-0.7V6.6c0-0.4,0.3-0.7,0.7-0.7H41
		C41.3,5.9,41.6,6.2,41.6,6.6z"/>
	<rect x="38.5" y="2.5" class="st0" width="1.3" height="2.8"/>
	<rect x="38.5" y="16.2" class="st0" width="1.3" height="2.6"/>
	<rect x="22.9" y="21.2" class="st0" width="1.3" height="4.2"/>
</g>
</svg>
