<?xml version="1.0" encoding="utf-8"?>
<!-- Generator: Adobe Illustrator 27.7.0, SVG Export Plug-In . SVG Version: 6.00 Build 0)  -->
<svg version="1.1" id="Calque_1" xmlns="http://www.w3.org/2000/svg" xmlns:xlink="http://www.w3.org/1999/xlink" x="0px" y="0px"
	 viewBox="0 0 512 512" style="enable-background:new 0 0 512 512;" xml:space="preserve">
<style type="text/css">
	.st0{fill:#FFFFFF;}
</style>
<path class="st0" d="M512,268c-5.5,5.7-10.9,11.5-16.5,17.1c-13,13.1-26.2,26.1-39.2,39.2c-24.9,25.1-53,45.8-85.2,60.6
	c-20.5,9.5-42,16-64.2,20.2c-19.9,3.8-40,5.5-60.2,4.9c-22.2-0.7-44-3.9-65.2-10.3c-12.4-3.7-24.5-8.6-36.6-13.4
	c-4-1.6-6.6-1.3-9.8,2c-38.5,38.8-77.2,77.4-115.8,116c-2.8,2.8-6.1,5.2-9.2,7.8H7c-2.3-1.7-4.7-3.3-7-5c0-2.3,0-4.7,0-7
	c2-2.1,3.9-4.4,5.9-6.4c37.8-37.8,75.6-75.6,113.4-113.4c1.3-1.3,2.9-2.1,4-2.9c-14-9.8-27.2-19-40.3-28.3c-3.2-2.3-6.3-4.8-9.1-7.5
	c-23-22.6-46-45.3-68.9-68c-5.2-5.1-5.7-11.8,0.2-17.5C27,234.8,48,212.8,69.9,191.9c14.4-13.8,30.7-25.6,48.2-35.5
	c17.3-9.8,35.2-18.3,54.2-23.8c13.8-4,27.9-6.7,41.9-9.5c19.2-3.8,38.8-4,58.2-2.8c16.3,1.1,32.5,4.1,48.6,7.4
	c11.6,2.4,22.7,6.7,34,10.3c3.5,1.1,5.8,0.9,8.6-2c43.5-43.7,87.1-87.3,130.7-130.8c2-2,4.5-3.5,6.7-5.3c2,0,4,0,6,0
	c1.7,1.7,3.3,3.3,5,5v7c-1.7,1.6-3.5,3.1-5.2,4.7c-42.2,42.2-84.4,84.3-126.5,126.5c-1.2,1.2-2.4,2.5-3.6,3.8
	c6.5,3.5,12.4,6.7,18.2,10c16.6,9.5,32.2,20.4,46,33.6c22.1,21.2,43.5,43.2,65.1,64.9c2.1,2.1,4,4.3,5.9,6.4V268L512,268z
	 M290.3,207.9c-0.3-0.3-1.1-1.2-2.2-1.9c-17-10.5-35.1-11.8-53.8-5.8c-5.7,1.8-10.1,0.3-11.9-4.3c-1.9-4.9,0.6-9.9,6.2-11.8
	c16.2-5.5,32.7-6.5,49-1.1c9.1,3.1,17.7,7.7,26.9,11.7c9.6-9.6,19.9-19.9,30.3-30.3c-42.9-36.4-123.3-42.6-174.8,15.2
	c-45.7,51.3-38.8,124.7-4.3,162.8c13.2-13.2,26.4-26.4,39.6-39.5c-8.1-10.8-13.3-23-15.4-36.8c-2.6-17.7,1.3-33.8,9.7-49
	c0.9-1.5,3.3-2.9,5.1-3.1c8.9-0.9,12.8,5,8.8,13c-6.4,12.5-9.2,25.5-6.5,39.5c1.8,9,5.3,17.1,10.4,24.2
	C235.1,263.1,262.6,235.6,290.3,207.9L290.3,207.9z M167.5,357.2c3.1,2.7,6.2,5.9,9.8,8.5c28.5,20.8,59.9,30.7,95.5,25.5
	c16.7-2.4,32.1-7.6,46.6-15.9c21.8-12.5,38.5-30,50.1-52.2c10.3-19.9,14.7-41.1,13.8-63.6c-0.5-13.4-2.9-26.1-7.3-38.6
	c-5.5-15.7-14-29.6-25.5-41.7c-1-1-4-1.7-4.7-1c-10.1,9.8-20,19.9-29.9,29.8c28.5,36.9,17.3,84.9-12,107.8
	c-26.5,20.7-65.3,24.7-95.6,0.6C194.7,329.9,181.2,343.4,167.5,357.2L167.5,357.2z M350.6,374.1c1.6-0.3,2.6-0.4,3.4-0.7
	c8.8-4.1,17.6-8,26.2-12.4c22.5-11.8,42.2-27.6,60.4-45.2c16.1-15.6,31.9-31.8,47.8-47.7c1-1,1.9-2.1,3-3.4
	c-9.7-9.7-19-19.2-28.6-28.4c-14.9-14.4-29.4-29.2-45-42.8c-16.1-14-34.6-24.7-54.2-33.7c-1.1,1.2-2.2,2.5-3.5,3.8
	c27.7,30.1,41.8,65.2,40.2,106.7C398.6,312.1,381.2,345.7,350.6,374.1L350.6,374.1z M158.5,155.7c-3.8,1.6-7.7,3-11.4,4.7
	c-23.9,11-45.8,25.2-64.9,43.2c-21,19.7-40.8,40.5-61.5,61.2c22.7,22.1,45.1,44.1,67.7,65.9c12,11.5,25.8,20.5,40.3,28.6
	c7.7,4.3,7.8,4.2,13.8-2.3c0.2-0.2,0.3-0.6,0.6-1.1c-23.7-30-35-64.4-31.9-102.6C114.2,214.9,130.6,182.5,158.5,155.7L158.5,155.7z
	 M303.3,221c-27.8,27.8-55.3,55.3-82.9,82.9c20.4,17.1,57.6,17.9,81.7-10.3C319.6,273.1,319,237.6,303.3,221z"/>
</svg>
