<?xml version="1.0" encoding="utf-8"?>
<!-- Generator: Adobe Illustrator 27.7.0, SVG Export Plug-In . SVG Version: 6.00 Build 0)  -->
<svg version="1.1" id="Calque_1" xmlns="http://www.w3.org/2000/svg" xmlns:xlink="http://www.w3.org/1999/xlink" x="0px" y="0px"
	 viewBox="0 0 64 64" style="enable-background:new 0 0 64 64;" xml:space="preserve">
<style type="text/css">
	.st0{fill:#231F20;}
	.st1{fill:#E7494F;}
</style>
<g id="Layer_1">
</g>
<g id="Layer_1_00000026859433257123627750000015440520042313670574_">
</g>
<g id="Layer_1_00000039830878372750492020000004747780709887999163_">
</g>
<g id="Layer_1_00000047053218770310234260000006929441533912596409_">
</g>
<g>
	<path class="st0" d="M28.7,25.9h-18c-1.2,0-2.2,1-2.2,2.2v29.3c0,1.2,1,2.2,2.2,2.2h18c1.2,0,2.2-1,2.2-2.2V28.1
		C31,26.9,30,25.9,28.7,25.9z M29.5,57.4c0,0.4-0.3,0.7-0.7,0.7h-18c-0.4,0-0.7-0.3-0.7-0.7V28.1c0-0.4,0.3-0.7,0.7-0.7h18
		c0.4,0,0.7,0.3,0.7,0.7C29.5,28.1,29.5,57.4,29.5,57.4z"/>
	<path class="st1" d="M15.3,33.3v19.6h14.2v4.5c0,0.4-0.3,0.7-0.7,0.7h-18c-0.4,0-0.7-0.3-0.7-0.7V28.1c0-0.4,0.3-0.7,0.7-0.7h18
		c0.4,0,0.7,0.3,0.7,0.7v5.1L15.3,33.3L15.3,33.3z"/>
	<polygon class="st0" points="26.7,27.1 25.2,27.1 25.2,20.7 14.3,20.7 14.3,27.1 12.8,27.1 12.8,19.3 26.7,19.3 	"/>
	<path class="st0" d="M22.1,20.4l-1-13.4c-0.1-0.7-0.6-1.2-1.3-1.2s-1.3,0.5-1.3,1.2l-1,13.4l-1.5-0.1l1-13.4
		c0.1-1.5,1.3-2.6,2.8-2.6c1.5,0,2.7,1.1,2.8,2.6l1,13.4L22.1,20.4z"/>
	<polygon class="st0" points="16.8,34.7 16.8,51.4 30.2,51.4 30.2,52.9 15.3,52.9 15.3,33.3 30.2,33.3 30.2,34.7 	"/>
	<path class="st0" d="M53.3,25.9h-18c-1.2,0-2.2,1-2.2,2.2v29.3c0,1.2,1,2.2,2.2,2.2h18c1.2,0,2.2-1,2.2-2.2V28.1
		C55.5,26.9,54.5,25.9,53.3,25.9z M54,57.4c0,0.4-0.3,0.7-0.7,0.7h-18c-0.4,0-0.7-0.3-0.7-0.7V28.1c0-0.4,0.3-0.7,0.7-0.7h18
		c0.4,0,0.7,0.3,0.7,0.7V57.4z"/>
	<path class="st1" d="M39.9,33.3v19.6H54v4.5c0,0.4-0.3,0.7-0.7,0.7h-18c-0.4,0-0.7-0.3-0.7-0.7V28.1c0-0.4,0.3-0.7,0.7-0.7h18
		c0.4,0,0.7,0.3,0.7,0.7v5.1L39.9,33.3L39.9,33.3z"/>
	<polygon class="st0" points="51.2,27.1 49.7,27.1 49.7,20.7 38.8,20.7 38.8,27.1 37.3,27.1 37.3,19.3 51.2,19.3 	"/>
	<path class="st0" d="M46.6,20.4l-1-13.4c-0.1-0.7-0.6-1.2-1.3-1.2S43,6.4,42.9,7.1l-1,13.4l-1.5-0.1l1-13.4
		c0.1-1.5,1.3-2.6,2.8-2.6c1.5,0,2.7,1.1,2.8,2.6l1,13.4L46.6,20.4z"/>
	<polygon class="st0" points="41.3,34.7 41.3,51.4 54.8,51.4 54.8,52.9 39.9,52.9 39.9,33.3 54.8,33.3 54.8,34.7 	"/>
</g>
</svg>
