<?xml version="1.0" encoding="utf-8"?>
<!-- Generator: Adobe Illustrator 27.7.0, SVG Export Plug-In . SVG Version: 6.00 Build 0)  -->
<svg version="1.1" id="Calque_1" xmlns="http://www.w3.org/2000/svg" xmlns:xlink="http://www.w3.org/1999/xlink" x="0px" y="0px"
	 viewBox="0 0 64 64" style="enable-background:new 0 0 64 64;" xml:space="preserve">
<style type="text/css">
	.st0{fill:#231F20;}
	.st1{fill:#E7494F;}
</style>
<g id="Layer_1">
</g>
<g id="Layer_1_00000026859433257123627750000015440520042313670574_">
</g>
<g id="Layer_1_00000039830878372750492020000004747780709887999163_">
</g>
<g id="power-supply">
	<g>
		<path class="st0" d="M59.7,14.6H4.3c-0.5,0-0.9,0.4-0.9,0.9v33.7c0,0.5,0.4,0.9,0.9,0.9h55.3c0.5,0,0.9-0.4,0.9-0.9V15.5
			C60.5,15,60.1,14.6,59.7,14.6z M58.8,48.3H5.2V16.4h53.5C58.8,16.4,58.8,48.3,58.8,48.3z"/>
		<path class="st1" d="M5.2,16.4v31.9h53.5V16.4H5.2z M33.2,36.8c0,0.5-0.4,0.9-0.9,0.9H8.7c-0.5,0-0.9-0.4-0.9-0.9V20.9
			c0-0.5,0.4-0.9,0.9-0.9h23.6c0.5,0,0.9,0.4,0.9,0.9V36.8z M41.4,46.7c-2.2,0-4-1.8-4-4c0-2.2,1.8-4,4-4s4,1.8,4,4
			C45.4,44.9,43.6,46.7,41.4,46.7z M42.1,35.7c-3.8-2.2-5.1-7-3-10.8c0.5-0.9,1.2-1.7,2-2.3c0.8-0.6,1.8-1.1,2.8-1.4
			c2-0.6,4.2-0.3,6,0.8c1.8,1.1,3.2,2.8,3.7,4.8c0.6,2,0.3,4.2-0.8,6c-1.5,2.6-4.2,4-6.9,4C44.7,36.8,43.3,36.4,42.1,35.7z
			 M50.9,46.7c-2.2,0-4-1.8-4-4c0-2.2,1.8-4,4-4s4,1.8,4,4C54.9,44.9,53.1,46.7,50.9,46.7z"/>
		<path class="st0" d="M15.7,48.3H7.2c-0.5,0-0.9,0.4-0.9,0.9v3.5c0,0.5,0.4,0.9,0.9,0.9h8.5c0.5,0,0.9-0.4,0.9-0.9v-3.5
			C16.6,48.7,16.2,48.3,15.7,48.3z M14.8,51.8H8.1v-1.7h6.7L14.8,51.8L14.8,51.8z"/>
		<path class="st0" d="M56.8,48.3h-8.5c-0.5,0-0.9,0.4-0.9,0.9v3.5c0,0.5,0.4,0.9,0.9,0.9h8.5c0.5,0,0.9-0.4,0.9-0.9v-3.5
			C57.7,48.7,57.3,48.3,56.8,48.3z M55.9,51.8h-6.7v-1.7h6.7V51.8z"/>
		<path class="st0" d="M32.3,20H8.7c-0.5,0-0.9,0.4-0.9,0.9v15.9c0,0.5,0.4,0.9,0.9,0.9h23.6c0.5,0,0.9-0.4,0.9-0.9V20.9
			C33.2,20.4,32.8,20,32.3,20z M31.4,35.9H9.6V21.8h21.8V35.9z"/>
		<path class="st0" d="M53.7,26.7c-0.6-2-1.9-3.8-3.7-4.8c-1.8-1.1-4-1.3-6-0.8c-1,0.3-2,0.7-2.8,1.4c-0.8,0.6-1.5,1.4-2,2.3
			c-2.2,3.8-0.8,8.7,3,10.8c1.2,0.7,2.6,1,3.9,1c2.8,0,5.4-1.4,6.9-4C53.9,30.9,54.2,28.8,53.7,26.7z M51.3,31.9
			c-1.7,3-5.5,4-8.4,2.3c-2-1.1-3.1-3.2-3.1-5.4c0-1,0.3-2.1,0.8-3c0.8-1.4,2.1-2.5,3.7-2.9c0.5-0.1,1.1-0.2,1.6-0.2
			c0.8,0,1.5,0.1,2.2,0.4c0.3,0.1,0.5,0.2,0.8,0.4c0.3,0.1,0.5,0.3,0.7,0.5c1,0.8,1.8,1.9,2.1,3.2C52.4,28.8,52.2,30.4,51.3,31.9z"
			/>
		<path class="st0" d="M41.4,38.6c-2.2,0-4,1.8-4,4c0,2.2,1.8,4,4,4s4-1.8,4-4C45.4,40.4,43.6,38.6,41.4,38.6z M41.4,44.9
			c-1.2,0-2.2-1-2.2-2.2c0-1.2,1-2.2,2.2-2.2s2.2,1,2.2,2.2C43.6,43.9,42.6,44.9,41.4,44.9z"/>
		<path class="st0" d="M50.9,38.6c-2.2,0-4,1.8-4,4c0,2.2,1.8,4,4,4s4-1.8,4-4C54.9,40.4,53.1,38.6,50.9,38.6z M50.9,44.9
			c-1.2,0-2.2-1-2.2-2.2c0-1.2,1-2.2,2.2-2.2s2.2,1,2.2,2.2C53.1,43.9,52.1,44.9,50.9,44.9z"/>
		<path class="st0" d="M20.5,34.2c-1.3,0-2.4-1.1-2.4-2.4c0-1.3,1.1-2.4,2.4-2.4s2.4,1.1,2.4,2.4C22.9,33.1,21.9,34.2,20.5,34.2z
			 M20.5,31.2c-0.4,0-0.6,0.3-0.6,0.6c0,0.4,0.3,0.6,0.6,0.6s0.6-0.3,0.6-0.6C21.2,31.4,20.9,31.2,20.5,31.2z"/>
		<rect x="19.6" y="26" class="st0" width="1.8" height="4.2"/>
		<path class="st0" d="M29.7,32.1h-1.8c0-4-3.3-7.3-7.3-7.3c-4,0-7.3,3.3-7.3,7.3h-1.8c0-5,4.1-9.1,9.1-9.1S29.7,27.1,29.7,32.1z"/>
		<rect x="44.2" y="24.9" transform="matrix(0.4961 -0.8682 0.8682 0.4961 1.7001 54.4318)" class="st0" width="7.1" height="1.8"/>
	</g>
</g>
<g id="Layer_1_00000047053218770310234260000006929441533912596409_">
</g>
</svg>
